<svg xmlns="http://www.w3.org/2000/svg" width="1180" height="540" viewBox="0 0 1180 540">
  <rect width="1180" height="540" fill="#f7f9fc"/>
  <rect x="32" y="32" width="1116" height="476" rx="10" fill="#ffffff" stroke="#d8dee9"/>
  <text x="64" y="82" font-family="Arial, sans-serif" font-size="30" fill="#344054" font-weight="700">Curation / Audit Events</text>
  <rect x="64" y="120" width="210" height="46" rx="6" fill="#344054"/>
  <text x="118" y="150" font-family="Arial, sans-serif" font-size="18" fill="#ffffff" font-weight="700">Blocked</text>
  <rect x="292" y="120" width="210" height="46" rx="6" fill="#ffffff" stroke="#d0d5dd"/>
  <text x="352" y="150" font-family="Arial, sans-serif" font-size="18" fill="#667085">Approved</text>
  <line x1="64" y1="222" x2="1114" y2="222" stroke="#d0d5dd"/>
  <text x="82" y="260" font-family="Arial, sans-serif" font-size="15" fill="#667085">Time</text>
  <text x="280" y="260" font-family="Arial, sans-serif" font-size="15" fill="#667085">Reason</text>
  <text x="520" y="260" font-family="Arial, sans-serif" font-size="15" fill="#667085">Package Type</text>
  <text x="700" y="260" font-family="Arial, sans-serif" font-size="15" fill="#667085">Package Name</text>
  <text x="890" y="260" font-family="Arial, sans-serif" font-size="15" fill="#667085">Package Version</text>
  <line x1="64" y1="282" x2="1114" y2="282" stroke="#d0d5dd"/>
  <text x="82" y="326" font-family="Arial, sans-serif" font-size="18" fill="#344054">2026-05-13 17:52</text>
  <text x="280" y="326" font-family="Arial, sans-serif" font-size="18" fill="#b42318" font-weight="700">Policy violations</text>
  <text x="520" y="326" font-family="Arial, sans-serif" font-size="18" fill="#344054">npm</text>
  <text x="700" y="326" font-family="Arial, sans-serif" font-size="18" fill="#344054" font-weight="700">axios</text>
  <text x="890" y="326" font-family="Arial, sans-serif" font-size="18" fill="#344054">1.7.2</text>
  <rect x="280" y="366" width="520" height="44" rx="6" fill="#fef3f2"/>
  <text x="304" y="394" font-family="Arial, sans-serif" font-size="16" fill="#b42318">Policy: Block Specific Package Versions - axios 1.7.2</text>
</svg>
